<svg xmlns="http://www.w3.org/2000/svg" xmlns:xlink="http://www.w3.org/1999/xlink" width="500" zoomAndPan="magnify" viewBox="0 0 375 374.999991" height="500" preserveAspectRatio="xMidYMid meet" version="1.0"><defs><g/><clipPath id="id1"><path d="M 60 144.648438 L 149.21875 144.648438 L 149.21875 196 L 60 196 Z M 60 144.648438 " clip-rule="nonzero"/></clipPath><clipPath id="id2"><path d="M 73 202 L 88 202 L 88 209.898438 L 73 209.898438 Z M 73 202 " clip-rule="nonzero"/></clipPath></defs><g clip-path="url(#id1)"><path fill="#03466e" d="M 146.789062 176.613281 C 146.007812 176.613281 145.375 175.976562 145.375 175.1875 C 145.375 174.402344 146.007812 173.761719 146.789062 173.761719 C 147.570312 173.761719 148.203125 174.402344 148.203125 175.1875 C 148.203125 175.976562 147.570312 176.613281 146.789062 176.613281 Z M 114.132812 174.910156 C 114.917969 174.910156 115.550781 175.546875 115.550781 176.335938 C 115.550781 177.125 114.917969 177.761719 114.132812 177.761719 C 113.351562 177.761719 112.71875 177.125 112.71875 176.335938 C 112.71875 175.546875 113.351562 174.910156 114.132812 174.910156 Z M 123.113281 180.4375 C 123.890625 180.4375 124.527344 181.078125 124.527344 181.863281 C 124.527344 182.652344 123.890625 183.289062 123.113281 183.289062 C 122.328125 183.289062 121.695312 182.652344 121.695312 181.863281 C 121.695312 181.078125 122.328125 180.4375 123.113281 180.4375 Z M 130.65625 151.40625 C 131.441406 151.40625 132.074219 152.042969 132.074219 152.832031 C 132.074219 153.617188 131.441406 154.257812 130.65625 154.257812 C 129.878906 154.257812 129.242188 153.617188 129.242188 152.832031 C 129.242188 152.042969 129.878906 151.40625 130.65625 151.40625 Z M 100.421875 151.40625 C 101.203125 151.40625 101.835938 152.042969 101.835938 152.832031 C 101.835938 153.617188 101.203125 154.257812 100.421875 154.257812 C 99.640625 154.257812 99.007812 153.617188 99.007812 152.832031 C 99.007812 152.042969 99.640625 151.40625 100.421875 151.40625 Z M 120.421875 164.628906 C 121.203125 164.628906 121.835938 165.265625 121.835938 166.054688 C 121.835938 166.839844 121.203125 167.480469 120.421875 167.480469 C 119.640625 167.480469 119.007812 166.839844 119.007812 166.054688 C 119.007812 165.265625 119.640625 164.628906 120.421875 164.628906 Z M 146.789062 172.742188 C 145.695312 172.742188 144.773438 173.46875 144.46875 174.464844 L 127.101562 174.464844 L 122.671875 170.003906 L 75.546875 170.003906 L 80.203125 169.546875 L 80.203125 162.371094 L 98.445312 162.371094 L 102.671875 166.632812 L 118.066406 166.632812 C 118.320312 167.703125 119.28125 168.5 120.421875 168.5 C 121.765625 168.5 122.851562 167.40625 122.851562 166.054688 C 122.851562 164.703125 121.765625 163.605469 120.421875 163.605469 C 119.339844 163.605469 118.421875 164.320312 118.109375 165.308594 L 103.214844 165.308594 L 98.988281 161.050781 L 73.386719 161.050781 L 80.203125 160.375 L 80.203125 153.492188 L 98.085938 153.492188 C 98.371094 154.523438 99.308594 155.277344 100.421875 155.277344 C 101.761719 155.277344 102.851562 154.183594 102.851562 152.832031 C 102.851562 151.480469 101.761719 150.386719 100.421875 150.386719 C 99.308594 150.386719 98.371094 151.140625 98.085938 152.171875 L 77.183594 152.171875 L 80.203125 151.871094 L 80.203125 146.191406 L 100.113281 146.191406 L 107.359375 153.492188 L 128.320312 153.492188 C 128.609375 154.523438 129.546875 155.277344 130.65625 155.277344 C 132 155.277344 133.085938 154.183594 133.085938 152.832031 C 133.085938 151.480469 132 150.386719 130.65625 150.386719 C 129.546875 150.386719 128.609375 151.140625 128.320312 152.171875 L 107.902344 152.171875 L 100.65625 144.867188 L 80.203125 144.867188 L 80.203125 144.871094 C 69.253906 144.691406 60.164062 153.585938 60.027344 164.625 C 59.964844 169.765625 61.828125 174.464844 64.933594 178.042969 C 68.960938 182.683594 71.25 188.597656 71.25 194.765625 L 71.25 195.148438 L 80.203125 195.148438 L 80.203125 185.511719 L 95.648438 185.511719 L 98.570312 182.566406 L 120.785156 182.566406 C 121.085938 183.574219 122.011719 184.3125 123.113281 184.3125 C 124.453125 184.3125 125.539062 183.214844 125.539062 181.863281 C 125.539062 180.515625 124.453125 179.417969 123.113281 179.417969 C 121.984375 179.417969 121.039062 180.191406 120.765625 181.242188 L 98.027344 181.242188 L 95.105469 184.1875 L 75.496094 184.1875 L 80.203125 183.71875 L 80.203125 180.144531 L 94.464844 180.144531 L 97.5625 177.023438 L 111.804688 177.023438 C 112.101562 178.039062 113.03125 178.78125 114.132812 178.78125 C 115.476562 178.78125 116.5625 177.6875 116.5625 176.335938 C 116.5625 174.984375 115.476562 173.890625 114.132812 173.890625 C 113.011719 173.890625 112.066406 174.65625 111.789062 175.703125 L 97.019531 175.703125 L 93.921875 178.820312 L 73.386719 178.820312 L 80.203125 178.148438 L 80.203125 171.328125 L 122.128906 171.328125 L 126.554688 175.789062 L 144.433594 175.789062 C 144.699219 176.851562 145.652344 177.636719 146.789062 177.636719 C 148.128906 177.636719 149.214844 176.539062 149.214844 175.1875 C 149.214844 173.835938 148.128906 172.742188 146.789062 172.742188 " fill-opacity="1" fill-rule="nonzero"/></g><path fill="#03466e" d="M 87.945312 197.109375 L 72.59375 197.109375 C 71.425781 197.109375 70.480469 198.0625 70.480469 199.238281 C 70.480469 200.417969 71.425781 201.371094 72.59375 201.371094 L 87.945312 201.371094 C 89.113281 201.371094 90.058594 200.417969 90.058594 199.238281 C 90.058594 198.0625 89.113281 197.109375 87.945312 197.109375 " fill-opacity="1" fill-rule="nonzero"/><g clip-path="url(#id2)"><path fill="#03466e" d="M 73.554688 202.738281 C 73.554688 202.738281 73.160156 205.226562 73.554688 205.914062 C 74.523438 207.609375 78.328125 209.847656 80.269531 209.847656 C 82.210938 209.847656 86.015625 207.609375 86.984375 205.914062 C 87.378906 205.226562 86.984375 202.738281 86.984375 202.738281 L 73.554688 202.738281 " fill-opacity="1" fill-rule="nonzero"/></g><g fill="#000000" fill-opacity="1"><g transform="translate(144.202447, 173.02244)"><g><path d="M 5.328125 -2.957031 L 5.328125 -19.496094 L 2.144531 -19.496094 L 2.144531 0 L 12.183594 0 L 12.183594 -2.957031 Z M 5.328125 -2.957031 "/></g></g></g><g fill="#000000" fill-opacity="1"><g transform="translate(158.654769, 173.02244)"><g><path d="M 2.308594 0 L 5.492188 0 L 5.492188 -19.496094 L 2.308594 -19.496094 Z M 2.308594 0 "/></g></g></g><g fill="#000000" fill-opacity="1"><g transform="translate(168.525953, 173.02244)"><g><path d="M 16.148438 -19.496094 L 16.148438 -5.035156 L 5.328125 -19.496094 L 2.144531 -19.496094 L 2.144531 0 L 5.328125 0 L 5.328125 -14.492188 L 16.117188 0 L 19.300781 0 L 19.300781 -19.496094 Z M 16.148438 -19.496094 "/></g></g></g><g fill="#000000" fill-opacity="1"><g transform="translate(192.075561, 173.02244)"><g><path d="M 13.550781 -19.496094 L 0.0664062 -19.496094 L 0.0664062 -16.539062 L 5.230469 -16.539062 L 5.230469 0 L 8.382812 0 L 8.382812 -16.539062 L 13.550781 -16.539062 Z M 13.550781 -19.496094 "/></g></g></g><g fill="#000000" fill-opacity="1"><g transform="translate(207.795007, 173.02244)"><g><path d="M 13.484375 -16.605469 L 13.484375 -19.496094 L 2.308594 -19.496094 L 2.308594 0 L 13.484375 0 L 13.484375 -2.890625 L 5.492188 -2.890625 L 5.492188 -8.285156 L 12.414062 -8.285156 L 12.414062 -11.210938 L 5.492188 -11.210938 L 5.492188 -16.605469 Z M 13.484375 -16.605469 "/></g></g></g><g fill="#000000" fill-opacity="1"><g transform="translate(225.041493, 173.02244)"><g><path d="M 11.40625 0.261719 C 15.207031 0.261719 18.488281 -1.851562 20.179688 -4.972656 L 17.449219 -6.433594 C 16.3125 -4.289062 14.039062 -2.890625 11.40625 -2.890625 C 7.570312 -2.890625 4.550781 -5.882812 4.550781 -9.75 C 4.550781 -13.613281 7.570312 -16.605469 11.40625 -16.605469 C 14.039062 -16.605469 16.3125 -15.207031 17.449219 -13.0625 L 20.179688 -14.523438 C 18.488281 -17.644531 15.207031 -19.757812 11.40625 -19.757812 C 5.882812 -19.757812 1.398438 -15.273438 1.398438 -9.75 C 1.398438 -4.222656 5.882812 0.261719 11.40625 0.261719 Z M 11.40625 0.261719 "/></g></g></g><g fill="#000000" fill-opacity="1"><g transform="translate(248.266189, 173.02244)"><g><path d="M 14.65625 -19.496094 L 14.65625 -11.242188 L 5.328125 -11.242188 L 5.328125 -19.496094 L 2.144531 -19.496094 L 2.144531 0 L 5.328125 0 L 5.328125 -8.285156 L 14.65625 -8.285156 L 14.65625 0 L 17.839844 0 L 17.839844 -19.496094 Z M 14.65625 -19.496094 "/></g></g></g><g fill="#03466e" fill-opacity="1"><g transform="translate(152.293778, 189.402117)"><g><path d="M 0.53125 -7.4375 L 0.53125 -8.3125 L 6.015625 -8.3125 L 6.015625 -7.4375 L 3.8125 -7.4375 L 3.8125 0 L 2.71875 0 L 2.71875 -7.4375 Z M 0.53125 -7.4375 "/></g></g></g><g fill="#03466e" fill-opacity="1"><g transform="translate(161.161795, 189.402117)"><g><path d="M 5.296875 -8.3125 L 5.296875 -7.453125 L 1.984375 -7.453125 L 1.984375 -4.625 L 4.9375 -4.625 L 4.9375 -3.765625 L 1.984375 -3.765625 L 1.984375 -0.859375 L 5.296875 -0.859375 L 5.296875 0 L 0.90625 0 L 0.90625 -8.3125 Z M 5.296875 -8.3125 "/></g></g></g><g fill="#03466e" fill-opacity="1"><g transform="translate(169.537807, 189.402117)"><g><path d="M 4.703125 0.078125 C 3.515625 0.078125 2.507812 -0.320312 1.6875 -1.125 C 0.875 -1.925781 0.46875 -2.941406 0.46875 -4.171875 C 0.46875 -5.398438 0.875 -6.410156 1.6875 -7.203125 C 2.507812 -8.003906 3.515625 -8.40625 4.703125 -8.40625 C 5.566406 -8.40625 6.335938 -8.195312 7.015625 -7.78125 C 7.691406 -7.375 8.191406 -6.789062 8.515625 -6.03125 L 7.1875 -6.03125 C 6.6875 -6.957031 5.859375 -7.421875 4.703125 -7.421875 C 3.796875 -7.421875 3.046875 -7.125 2.453125 -6.53125 C 1.867188 -5.9375 1.578125 -5.144531 1.578125 -4.15625 C 1.578125 -3.175781 1.867188 -2.382812 2.453125 -1.78125 C 3.046875 -1.1875 3.796875 -0.890625 4.703125 -0.890625 C 5.253906 -0.890625 5.742188 -1.007812 6.171875 -1.25 C 6.609375 -1.5 6.945312 -1.847656 7.1875 -2.296875 L 8.515625 -2.296875 C 8.191406 -1.535156 7.691406 -0.945312 7.015625 -0.53125 C 6.335938 -0.125 5.566406 0.078125 4.703125 0.078125 Z M 4.703125 0.078125 "/></g></g></g><g fill="#03466e" fill-opacity="1"><g transform="translate(181.177823, 189.402117)"><g><path d="M 6.1875 -8.3125 L 7.28125 -8.3125 L 7.28125 0 L 6.1875 0 L 6.1875 -3.75 L 1.984375 -3.75 L 1.984375 0 L 0.90625 0 L 0.90625 -8.3125 L 1.984375 -8.3125 L 1.984375 -4.625 L 6.1875 -4.625 Z M 6.1875 -8.3125 "/></g></g></g><g fill="#03466e" fill-opacity="1"><g transform="translate(191.677836, 189.402117)"><g><path d="M 6.390625 -8.3125 L 7.46875 -8.3125 L 7.46875 0 L 6.390625 0 L 1.984375 -6.59375 L 1.984375 0 L 0.90625 0 L 0.90625 -8.3125 L 1.984375 -8.3125 L 6.390625 -1.71875 Z M 6.390625 -8.3125 "/></g></g></g><g fill="#03466e" fill-opacity="1"><g transform="translate(202.369859, 189.402117)"><g><path d="M 6.9375 -1.78125 C 7.519531 -2.382812 7.8125 -3.175781 7.8125 -4.15625 C 7.8125 -5.144531 7.519531 -5.9375 6.9375 -6.53125 C 6.351562 -7.125 5.609375 -7.421875 4.703125 -7.421875 C 3.796875 -7.421875 3.046875 -7.125 2.453125 -6.53125 C 1.867188 -5.9375 1.578125 -5.144531 1.578125 -4.15625 C 1.578125 -3.175781 1.867188 -2.382812 2.453125 -1.78125 C 3.046875 -1.1875 3.796875 -0.890625 4.703125 -0.890625 C 5.609375 -0.890625 6.351562 -1.1875 6.9375 -1.78125 Z M 4.703125 0.078125 C 3.515625 0.078125 2.507812 -0.320312 1.6875 -1.125 C 0.875 -1.925781 0.46875 -2.941406 0.46875 -4.171875 C 0.46875 -5.398438 0.875 -6.410156 1.6875 -7.203125 C 2.507812 -8.003906 3.515625 -8.40625 4.703125 -8.40625 C 5.890625 -8.40625 6.890625 -8.003906 7.703125 -7.203125 C 8.515625 -6.410156 8.921875 -5.394531 8.921875 -4.15625 C 8.921875 -2.925781 8.515625 -1.910156 7.703125 -1.109375 C 6.890625 -0.316406 5.890625 0.078125 4.703125 0.078125 Z M 4.703125 0.078125 "/></g></g></g><g fill="#03466e" fill-opacity="1"><g transform="translate(214.069874, 189.402117)"><g><path d="M 0.90625 -8.3125 L 1.984375 -8.3125 L 1.984375 -0.84375 L 4.90625 -0.84375 L 4.90625 0 L 0.90625 0 Z M 0.90625 -8.3125 "/></g></g></g><g fill="#03466e" fill-opacity="1"><g transform="translate(221.533882, 189.402117)"><g><path d="M 6.9375 -1.78125 C 7.519531 -2.382812 7.8125 -3.175781 7.8125 -4.15625 C 7.8125 -5.144531 7.519531 -5.9375 6.9375 -6.53125 C 6.351562 -7.125 5.609375 -7.421875 4.703125 -7.421875 C 3.796875 -7.421875 3.046875 -7.125 2.453125 -6.53125 C 1.867188 -5.9375 1.578125 -5.144531 1.578125 -4.15625 C 1.578125 -3.175781 1.867188 -2.382812 2.453125 -1.78125 C 3.046875 -1.1875 3.796875 -0.890625 4.703125 -0.890625 C 5.609375 -0.890625 6.351562 -1.1875 6.9375 -1.78125 Z M 4.703125 0.078125 C 3.515625 0.078125 2.507812 -0.320312 1.6875 -1.125 C 0.875 -1.925781 0.46875 -2.941406 0.46875 -4.171875 C 0.46875 -5.398438 0.875 -6.410156 1.6875 -7.203125 C 2.507812 -8.003906 3.515625 -8.40625 4.703125 -8.40625 C 5.890625 -8.40625 6.890625 -8.003906 7.703125 -7.203125 C 8.515625 -6.410156 8.921875 -5.394531 8.921875 -4.15625 C 8.921875 -2.925781 8.515625 -1.910156 7.703125 -1.109375 C 6.890625 -0.316406 5.890625 0.078125 4.703125 0.078125 Z M 4.703125 0.078125 "/></g></g></g><g fill="#03466e" fill-opacity="1"><g transform="translate(233.233897, 189.402117)"><g><path d="M 4.640625 0.078125 C 3.492188 0.078125 2.507812 -0.320312 1.6875 -1.125 C 0.875 -1.925781 0.46875 -2.941406 0.46875 -4.171875 C 0.46875 -5.398438 0.875 -6.410156 1.6875 -7.203125 C 2.507812 -8.003906 3.515625 -8.40625 4.703125 -8.40625 C 5.566406 -8.40625 6.335938 -8.195312 7.015625 -7.78125 C 7.691406 -7.375 8.191406 -6.789062 8.515625 -6.03125 L 7.1875 -6.03125 C 6.6875 -6.957031 5.859375 -7.421875 4.703125 -7.421875 C 3.796875 -7.421875 3.046875 -7.125 2.453125 -6.53125 C 1.867188 -5.9375 1.578125 -5.144531 1.578125 -4.15625 C 1.578125 -3.175781 1.867188 -2.382812 2.453125 -1.78125 C 3.046875 -1.1875 3.78125 -0.890625 4.65625 -0.890625 C 5.53125 -0.890625 6.234375 -1.132812 6.765625 -1.625 C 7.304688 -2.125 7.617188 -2.796875 7.703125 -3.640625 L 4.265625 -3.640625 L 4.265625 -4.515625 L 8.859375 -4.515625 L 8.859375 -3.640625 C 8.742188 -2.578125 8.296875 -1.691406 7.515625 -0.984375 C 6.742188 -0.273438 5.785156 0.078125 4.640625 0.078125 Z M 4.640625 0.078125 "/></g></g></g><g fill="#03466e" fill-opacity="1"><g transform="translate(244.873911, 189.402117)"><g><path d="M 3.984375 0 L 2.890625 0 L 2.890625 -3.140625 L 0.1875 -8.3125 L 1.375 -8.3125 L 3.4375 -4.15625 L 5.46875 -8.3125 L 6.6875 -8.3125 L 3.984375 -3.140625 Z M 3.984375 0 "/></g></g></g></svg>